<svg width="15" height="18" viewBox="0 0 15 18" fill="none" xmlns="http://www.w3.org/2000/svg">
<path d="M14.9022 7.68368L5.06142 17.8929C4.78794 18.1757 4.33441 17.848 4.51218 17.4962L8.01502 10.5222C8.04155 10.4696 8.05425 10.411 8.05189 10.352C8.04953 10.293 8.0322 10.2356 8.00155 10.1853C7.9709 10.135 7.92796 10.0934 7.87685 10.0647C7.82574 10.0359 7.76816 10.0209 7.70963 10.021H0.341576C0.274279 10.0209 0.208495 10.0008 0.152468 9.96322C0.0964419 9.92561 0.0526657 9.87214 0.0266267 9.80953C0.000587677 9.74692 -0.00655606 9.67795 0.00609097 9.61127C0.018738 9.54458 0.0506134 9.48314 0.0977215 9.43465L9.22518 0.104981C9.48955 -0.165194 9.9294 0.131424 9.7824 0.482076L7.16495 6.7076C7.14279 6.76038 7.13401 6.8179 7.13942 6.87496C7.14483 6.93202 7.16424 6.98682 7.19591 7.03441C7.22758 7.082 7.27051 7.12087 7.32081 7.14752C7.37111 7.17416 7.4272 7.18774 7.48401 7.18702L14.6527 7.09735C14.7203 7.09625 14.7868 7.11543 14.8436 7.15246C14.9004 7.18949 14.9451 7.24271 14.9719 7.30537C14.9988 7.36803 15.0066 7.43731 14.9944 7.50445C14.9822 7.5716 14.9505 7.63357 14.9033 7.68253" fill="white"/>
</svg>
