<svg width="33" height="28" viewBox="0 0 33 28" fill="none" xmlns="http://www.w3.org/2000/svg">
<path d="M13.9379 0C14.2795 1.04869 14.4503 1.9226 14.4503 2.62173C14.4503 3.25094 14.3478 4.08989 14.1429 5.13858C9.56522 5.13858 7.2764 7.55056 7.2764 12.3745C7.2764 14.1223 8.1646 15.1011 9.94099 15.3109C12.5373 15.5206 13.8354 17.2335 13.8354 20.4494C13.8354 22.8964 13.2547 24.784 12.0932 26.1124C11 27.3708 8.98447 28 6.04658 28C2.01553 28 0 25.2035 0 19.6105C0 14.0175 1.09317 9.36829 3.2795 5.66292C5.46584 1.88764 9.01863 0 13.9379 0ZM32.4876 0C32.8292 1.04869 33 1.9226 33 2.62173C33 3.25094 32.8975 4.08989 32.6925 5.13858C28.1149 5.13858 25.8261 7.55056 25.8261 12.3745C25.8261 14.1223 26.7143 15.1011 28.4907 15.3109C31.087 15.5206 32.3851 17.2335 32.3851 20.4494C32.3851 22.8964 31.8043 24.784 30.6429 26.1124C29.5497 27.3708 27.5342 28 24.5963 28C20.5652 28 18.5497 25.2035 18.5497 19.6105C18.5497 14.0175 19.6429 9.36829 21.8292 5.66292C24.0155 1.88764 27.5683 0 32.4876 0Z" fill="#00D57A"/>
</svg>
